<?xml version="1.0" encoding="utf-8"?>
<!-- Generator: Adobe Illustrator 26.0.3, SVG Export Plug-In . SVG Version: 6.00 Build 0)  -->
<svg version="1.1" id="Layer_1" xmlns="http://www.w3.org/2000/svg" xmlns:xlink="http://www.w3.org/1999/xlink" x="0px" y="0px"
	 viewBox="0 0 440.4 83.6" style="enable-background:new 0 0 440.4 83.6;" xml:space="preserve">
<style type="text/css">
	.st0{fill-rule:evenodd;clip-rule:evenodd;fill:#0083FC;}
</style>
<path class="st0" d="M0,11.4C0,5.1,5.3,0,11.9,0h19.8c1.4,0,2.7,0.2,4,0.7c6,2,11.5,6.9,17.8,6.9c6.3,0,11.8-4.9,17.8-6.9
	c1.2-0.4,2.6-0.7,4-0.7C81.7,0,87,5.1,87,11.4c0,6.3-5.3,11.4-11.9,11.4c-1.4,0-2.7-0.2-4-0.7c-6-2-11.5-6.9-17.8-6.9
	c-6.3,0-11.8,4.9-17.8,6.9c-1.2,0.4-2.6,0.7-4,0.7H11.9C5.3,22.8,0,17.7,0,11.4z M0,41.8c0-6.3,5.3-11.4,11.9-11.4
	c1.7,0,3.4,0.4,4.9,1C22,33.7,26.9,38,32.6,38c5.7,0,10.6-4.3,15.9-6.6c1.5-0.6,3.1-1,4.9-1c6.6,0,11.9,5.1,11.9,11.4
	s-5.3,11.4-11.9,11.4c-1.7,0-3.4-0.4-4.9-1c-5.2-2.3-10.1-6.6-15.9-6.6c-5.7,0-10.6,4.3-15.9,6.6c-1.5,0.6-3.1,1-4.9,1
	C5.3,53.2,0,48.1,0,41.8z M11.9,60.8C5.3,60.8,0,65.9,0,72.2c0,6.3,5.3,11.4,11.9,11.4c6.6,0,11.9-5.1,11.9-11.4
	C23.7,65.9,18.4,60.8,11.9,60.8z"/>
<path d="M150,34.4v4.7h-14.1v9.4h11.9v4.7h-11.9v13h-6V34.4H150z M160.1,33.5v32.7h-5.4V33.5H160.1z M175.9,43.3
	c1.7,0,3.2,0.3,4.6,0.8c1.4,0.5,2.6,1.3,3.5,2.3c1,1,1.7,2.2,2.2,3.7c0.5,1.4,0.8,3,0.8,4.8c0,1.8-0.3,3.4-0.8,4.8
	c-0.5,1.4-1.3,2.7-2.2,3.7c-1,1-2.1,1.8-3.5,2.3c-1.4,0.5-2.9,0.8-4.6,0.8c-1.7,0-3.2-0.3-4.6-0.8c-1.4-0.5-2.6-1.3-3.5-2.3
	c-1-1-1.7-2.2-2.3-3.7c-0.5-1.4-0.8-3.1-0.8-4.8c0-1.8,0.3-3.4,0.8-4.8c0.5-1.4,1.3-2.7,2.3-3.7c1-1,2.2-1.8,3.5-2.3
	C172.7,43.6,174.2,43.3,175.9,43.3z M175.9,62.4c1.9,0,3.3-0.6,4.2-1.9c0.9-1.3,1.4-3.1,1.4-5.5s-0.5-4.3-1.4-5.6
	c-0.9-1.3-2.3-1.9-4.2-1.9c-1.9,0-3.3,0.6-4.2,1.9c-0.9,1.3-1.4,3.1-1.4,5.5c0,2.4,0.5,4.3,1.4,5.5C172.6,61.7,174,62.4,175.9,62.4z
	 M198.7,66.6c-2,0-3.5-0.6-4.5-1.7c-1.1-1.1-1.6-2.6-1.6-4.6V47.7h-2.3c-0.3,0-0.6-0.1-0.8-0.3c-0.2-0.2-0.3-0.5-0.3-0.9v-2.2
	l3.6-0.6l1.1-6.2c0.1-0.3,0.2-0.5,0.4-0.7c0.2-0.2,0.5-0.2,0.8-0.2h2.8v7.1h5.9v3.9H198v12.2c0,0.7,0.2,1.3,0.5,1.6s0.8,0.6,1.4,0.6
	c0.3,0,0.6,0,0.8-0.1c0.2-0.1,0.4-0.2,0.6-0.3c0.2-0.1,0.3-0.2,0.5-0.2c0.1-0.1,0.3-0.1,0.4-0.1c0.2,0,0.3,0,0.4,0.1
	c0.1,0.1,0.2,0.2,0.3,0.4l1.6,2.6c-0.8,0.7-1.7,1.2-2.7,1.5C200.9,66.4,199.8,66.6,198.7,66.6z M214.1,43.6v22.6h-5.4V43.6H214.1z
	 M214.9,37.1c0,0.5-0.1,0.9-0.3,1.3c-0.2,0.4-0.4,0.8-0.8,1.1c-0.3,0.3-0.7,0.6-1.1,0.7c-0.4,0.2-0.9,0.3-1.4,0.3
	c-0.5,0-0.9-0.1-1.3-0.3c-0.4-0.2-0.8-0.4-1.1-0.7c-0.3-0.3-0.6-0.7-0.7-1.1c-0.2-0.4-0.3-0.9-0.3-1.3c0-0.5,0.1-0.9,0.3-1.4
	c0.2-0.4,0.4-0.8,0.7-1.1s0.7-0.5,1.1-0.7c0.4-0.2,0.9-0.3,1.3-0.3c0.5,0,0.9,0.1,1.4,0.3c0.4,0.2,0.8,0.4,1.1,0.7
	c0.3,0.3,0.6,0.7,0.8,1.1C214.8,36.1,214.9,36.6,214.9,37.1z M239.5,43.6v29.9H234V63.4c-0.5,0.5-0.9,0.9-1.5,1.3
	c-0.5,0.4-1,0.7-1.6,1c-0.6,0.3-1.2,0.5-1.8,0.6c-0.6,0.2-1.3,0.2-2.1,0.2c-1.2,0-2.4-0.3-3.4-0.8c-1-0.5-1.9-1.3-2.7-2.2
	c-0.7-1-1.3-2.2-1.7-3.6c-0.4-1.4-0.6-3.1-0.6-4.9c0-1.7,0.2-3.2,0.7-4.7c0.5-1.4,1.1-2.7,2-3.7s1.9-1.9,3.1-2.5
	c1.2-0.6,2.5-0.9,4-0.9c0.7,0,1.3,0.1,1.9,0.2c0.6,0.1,1.1,0.3,1.6,0.5c0.5,0.2,1,0.5,1.4,0.8c0.4,0.3,0.8,0.7,1.2,1.1l0.3-1.3
	c0.1-0.3,0.2-0.6,0.5-0.7c0.2-0.2,0.5-0.2,0.9-0.2H239.5z M228.9,62.2c1.1,0,2.1-0.2,2.9-0.7s1.5-1.1,2.2-2V49.4
	c-0.6-0.7-1.3-1.3-2-1.6c-0.7-0.3-1.5-0.5-2.3-0.5c-0.8,0-1.6,0.2-2.2,0.5c-0.7,0.3-1.2,0.8-1.7,1.4c-0.5,0.6-0.8,1.4-1.1,2.4
	c-0.2,1-0.4,2.1-0.4,3.4c0,1.3,0.1,2.4,0.3,3.4c0.2,0.9,0.5,1.7,0.9,2.2c0.4,0.6,0.9,1,1.5,1.3C227.6,62.1,228.2,62.2,228.9,62.2z
	 M251.2,34.4h5c0.5,0,0.9,0.1,1.3,0.4c0.4,0.2,0.6,0.6,0.7,1l5.4,19c0.1,0.5,0.2,1,0.4,1.5c0.1,0.5,0.2,1.1,0.3,1.7
	c0.1-0.6,0.2-1.2,0.4-1.7c0.1-0.6,0.3-1.1,0.5-1.5l6.2-19c0.1-0.3,0.3-0.6,0.7-0.9c0.4-0.3,0.8-0.4,1.3-0.4h1.7
	c0.5,0,0.9,0.1,1.3,0.4c0.3,0.2,0.6,0.6,0.7,1l6.2,19c0.3,0.9,0.6,2,0.8,3.1c0.1-0.6,0.2-1.1,0.3-1.6c0.1-0.5,0.2-1,0.4-1.5l5.4-19
	c0.1-0.4,0.3-0.7,0.7-0.9s0.8-0.4,1.3-0.4h4.6l-9.9,31.8h-5.3l-7-21.7c-0.1-0.3-0.2-0.6-0.3-0.9c-0.1-0.3-0.2-0.7-0.3-1
	c-0.1,0.4-0.2,0.7-0.3,1c-0.1,0.3-0.2,0.6-0.3,0.9l-7,21.7h-5.3L251.2,34.4z M308.3,43.3c1.4,0,2.7,0.2,3.9,0.7
	c1.2,0.5,2.2,1.1,3.1,2c0.9,0.9,1.5,1.9,2,3.2c0.5,1.3,0.7,2.7,0.7,4.3c0,0.4,0,0.8-0.1,1c0,0.3-0.1,0.5-0.2,0.6
	c-0.1,0.1-0.2,0.3-0.4,0.3c-0.2,0.1-0.4,0.1-0.6,0.1h-13.9c0.2,2.3,0.8,4,1.9,5.1c1.1,1.1,2.5,1.6,4.3,1.6c0.9,0,1.6-0.1,2.3-0.3
	c0.6-0.2,1.2-0.4,1.7-0.7c0.5-0.2,0.9-0.5,1.3-0.7c0.4-0.2,0.7-0.3,1.1-0.3c0.2,0,0.4,0,0.6,0.1c0.2,0.1,0.3,0.2,0.4,0.4l1.6,2
	c-0.6,0.7-1.3,1.3-2,1.8c-0.7,0.5-1.5,0.9-2.4,1.1c-0.8,0.3-1.6,0.5-2.5,0.6c-0.8,0.1-1.6,0.2-2.4,0.2c-1.6,0-3-0.3-4.4-0.8
	c-1.3-0.5-2.5-1.3-3.5-2.3c-1-1-1.8-2.3-2.4-3.8c-0.6-1.5-0.9-3.3-0.9-5.2c0-1.5,0.2-3,0.7-4.3c0.5-1.4,1.2-2.5,2.1-3.5
	c0.9-1,2.1-1.8,3.4-2.4C305.1,43.6,306.7,43.3,308.3,43.3z M308.5,47.2c-1.6,0-2.8,0.4-3.7,1.3c-0.9,0.9-1.5,2.2-1.7,3.8h10.2
	c0-0.7-0.1-1.4-0.3-2c-0.2-0.6-0.5-1.2-0.9-1.7c-0.4-0.5-0.9-0.8-1.5-1.1C310,47.3,309.3,47.2,308.5,47.2z M322.6,66.2V33.5h5.4
	v12.9c0.9-1,1.9-1.7,3-2.3c1.1-0.6,2.5-0.9,4-0.9c1.2,0,2.4,0.3,3.4,0.8c1,0.5,1.9,1.2,2.6,2.2c0.7,1,1.3,2.2,1.7,3.6
	c0.4,1.4,0.6,3.1,0.6,4.9c0,1.7-0.2,3.2-0.7,4.7c-0.5,1.4-1.1,2.7-2,3.7c-0.8,1.1-1.9,1.9-3.1,2.5c-1.2,0.6-2.5,0.9-4,0.9
	c-0.7,0-1.3-0.1-1.9-0.2c-0.6-0.1-1.1-0.3-1.6-0.6c-0.5-0.2-0.9-0.5-1.3-0.9c-0.4-0.4-0.8-0.8-1.1-1.2l-0.2,1.5
	c-0.1,0.4-0.2,0.7-0.5,0.8c-0.2,0.2-0.5,0.2-0.9,0.2H322.6z M333.1,47.5c-1.1,0-2.1,0.2-2.9,0.7c-0.8,0.5-1.5,1.1-2.2,2v10.1
	c0.6,0.8,1.3,1.3,2,1.6c0.7,0.3,1.5,0.4,2.4,0.4c0.8,0,1.6-0.2,2.2-0.5c0.7-0.3,1.2-0.8,1.7-1.4c0.5-0.6,0.8-1.4,1.1-2.4
	c0.2-1,0.4-2.1,0.4-3.4c0-1.3-0.1-2.4-0.3-3.3c-0.2-0.9-0.5-1.7-0.9-2.2c-0.4-0.6-0.9-1-1.5-1.3C334.5,47.7,333.9,47.5,333.1,47.5z
	 M353.4,43.6v22.6H348V43.6H353.4z M354.2,37.1c0,0.5-0.1,0.9-0.3,1.3c-0.2,0.4-0.4,0.8-0.8,1.1c-0.3,0.3-0.7,0.6-1.1,0.7
	c-0.4,0.2-0.9,0.3-1.4,0.3c-0.5,0-0.9-0.1-1.3-0.3c-0.4-0.2-0.8-0.4-1.1-0.7c-0.3-0.3-0.6-0.7-0.7-1.1c-0.2-0.4-0.3-0.9-0.3-1.3
	c0-0.5,0.1-0.9,0.3-1.4c0.2-0.4,0.4-0.8,0.7-1.1s0.7-0.5,1.1-0.7c0.4-0.2,0.9-0.3,1.3-0.3c0.5,0,0.9,0.1,1.4,0.3
	c0.4,0.2,0.8,0.4,1.1,0.7c0.3,0.3,0.6,0.7,0.8,1.1C354.1,36.1,354.2,36.6,354.2,37.1z M359.6,66.2V43.6h3.3c0.7,0,1.2,0.3,1.4,1
	l0.4,1.8c0.5-0.5,0.9-0.9,1.4-1.3c0.5-0.4,1-0.7,1.6-1c0.6-0.3,1.2-0.5,1.8-0.6c0.6-0.1,1.4-0.2,2.1-0.2c1.2,0,2.3,0.2,3.3,0.6
	c1,0.4,1.7,1,2.4,1.8c0.6,0.7,1.1,1.6,1.5,2.7c0.3,1,0.5,2.2,0.5,3.5v14.4h-5.4V51.9c0-1.4-0.3-2.4-1-3.2c-0.6-0.8-1.6-1.1-2.9-1.1
	c-0.9,0-1.8,0.2-2.6,0.6c-0.8,0.4-1.6,1-2.3,1.7v16.3H359.6z M402.3,66.2h-2.4c-0.5,0-0.9-0.1-1.2-0.2c-0.3-0.2-0.5-0.5-0.7-0.9
	l-0.5-1.6c-0.6,0.5-1.1,1-1.7,1.4c-0.5,0.4-1.1,0.7-1.7,1c-0.6,0.3-1.2,0.5-1.9,0.6c-0.7,0.1-1.4,0.2-2.2,0.2c-1,0-1.8-0.1-2.6-0.4
	c-0.8-0.3-1.5-0.7-2.1-1.2c-0.6-0.5-1-1.2-1.3-1.9c-0.3-0.8-0.5-1.7-0.5-2.7c0-0.9,0.2-1.7,0.7-2.5c0.5-0.8,1.2-1.6,2.2-2.2
	c1-0.7,2.4-1.2,4.2-1.7c1.7-0.4,3.9-0.7,6.4-0.7V52c0-1.5-0.3-2.6-1-3.3c-0.6-0.7-1.6-1.1-2.8-1.1c-0.9,0-1.6,0.1-2.2,0.3
	c-0.6,0.2-1.1,0.4-1.5,0.7c-0.4,0.2-0.8,0.5-1.2,0.7c-0.4,0.2-0.8,0.3-1.2,0.3c-0.4,0-0.7-0.1-0.9-0.3c-0.3-0.2-0.5-0.4-0.6-0.7
	l-1-1.7c2.6-2.4,5.7-3.6,9.4-3.6c1.3,0,2.5,0.2,3.5,0.7c1,0.4,1.9,1,2.6,1.8c0.7,0.8,1.3,1.7,1.6,2.8c0.4,1.1,0.6,2.2,0.6,3.5V66.2z
	 M391.7,62.8c0.6,0,1.1-0.1,1.5-0.2c0.5-0.1,0.9-0.3,1.3-0.5c0.4-0.2,0.8-0.5,1.2-0.7c0.4-0.3,0.8-0.7,1.2-1.1v-3.8
	c-1.6,0.1-2.9,0.2-4,0.4c-1.1,0.2-1.9,0.4-2.6,0.7c-0.6,0.3-1.1,0.7-1.4,1.1c-0.3,0.4-0.4,0.9-0.4,1.3c0,1,0.3,1.6,0.8,2
	C390,62.6,390.8,62.8,391.7,62.8z M407.6,66.2V43.6h3.2c0.6,0,0.9,0.1,1.2,0.3c0.2,0.2,0.4,0.6,0.4,1.1l0.3,2.7
	c0.8-1.4,1.8-2.5,2.8-3.3c1.1-0.8,2.3-1.2,3.7-1.2c1.1,0,2,0.3,2.8,0.8l-0.7,4.1c0,0.3-0.1,0.5-0.3,0.6c-0.1,0.1-0.3,0.2-0.6,0.2
	c-0.2,0-0.5-0.1-0.9-0.2c-0.4-0.1-0.9-0.2-1.5-0.2c-1.1,0-2.1,0.3-2.9,0.9c-0.8,0.6-1.5,1.5-2,2.7v14.1H407.6z M439,48
	c-0.1,0.2-0.3,0.4-0.5,0.5c-0.2,0.1-0.4,0.1-0.6,0.1c-0.3,0-0.6-0.1-0.9-0.2c-0.3-0.1-0.6-0.3-1-0.5c-0.4-0.2-0.9-0.4-1.4-0.5
	c-0.5-0.1-1.1-0.2-1.8-0.2c-1.1,0-1.9,0.2-2.5,0.7c-0.6,0.5-0.9,1-0.9,1.8c0,0.5,0.2,0.9,0.5,1.2c0.3,0.3,0.7,0.6,1.3,0.9
	c0.5,0.2,1.1,0.5,1.8,0.7c0.7,0.2,1.3,0.4,2,0.6c0.7,0.2,1.4,0.5,2,0.8c0.7,0.3,1.2,0.7,1.8,1.1c0.5,0.5,0.9,1,1.3,1.6
	c0.3,0.6,0.5,1.4,0.5,2.3c0,1.1-0.2,2.1-0.6,3c-0.4,0.9-1,1.7-1.7,2.4c-0.8,0.7-1.7,1.2-2.8,1.6c-1.1,0.4-2.4,0.6-3.9,0.6
	c-0.8,0-1.5-0.1-2.3-0.2c-0.7-0.1-1.4-0.3-2.1-0.6c-0.7-0.2-1.3-0.5-1.9-0.9c-0.6-0.3-1.1-0.7-1.5-1.1l1.3-2.1
	c0.2-0.2,0.4-0.4,0.6-0.6s0.5-0.2,0.8-0.2c0.3,0,0.7,0.1,0.9,0.3c0.3,0.2,0.7,0.4,1.1,0.6c0.4,0.2,0.9,0.4,1.4,0.6
	c0.5,0.2,1.2,0.3,2,0.3c0.6,0,1.2-0.1,1.6-0.2c0.5-0.2,0.9-0.4,1.1-0.6c0.3-0.2,0.5-0.5,0.7-0.9c0.1-0.3,0.2-0.7,0.2-1
	c0-0.5-0.2-1-0.5-1.3c-0.3-0.3-0.7-0.6-1.3-0.9c-0.5-0.2-1.1-0.5-1.8-0.7c-0.7-0.2-1.3-0.4-2-0.7c-0.7-0.2-1.4-0.5-2-0.8
	c-0.7-0.3-1.3-0.7-1.8-1.2c-0.5-0.5-0.9-1.1-1.3-1.8c-0.3-0.7-0.5-1.6-0.5-2.6c0-0.9,0.2-1.8,0.6-2.6c0.4-0.8,0.9-1.6,1.6-2.2
	c0.7-0.6,1.6-1.1,2.7-1.5c1.1-0.4,2.3-0.6,3.7-0.6c1.6,0,3,0.3,4.2,0.8c1.3,0.5,2.3,1.2,3.2,2L439,48z"/>
</svg>
